Coordinates
version=1
nRows=12
nColumns=24
inDegrees=yes

Units are S.I. units (second, meters, Newtons, ...)
Angles are in degrees.

endheader
time	pelvis_tilt	pelvis_list	pelvis_rotation	pelvis_tx	pelvis_ty	pelvis_tz	hip_flexion_r	hip_adduction_r	hip_rotation_r	knee_angle_r	ankle_angle_r	subtalar_angle_r	mtp_angle_r	hip_flexion_l	hip_adduction_l	hip_rotation_l	knee_angle_l	ankle_angle_l	subtalar_angle_l	mtp_angle_l	lumbar_extension	lumbar_bending	lumbar_rotation
      0.58300000	      0.21082122	      2.60559322	      6.61875076	     -0.91984658	      1.00811406	      0.31221509	     21.83861828	     -2.54951185	     -9.49287597	      5.54416187	      1.74036783	     -1.34831203	      5.44126735	    -16.14095881	      6.09838365	     13.15795858	     -5.28504982	     14.66709355	     -6.85412117	     -3.97602290	     -6.02923097	     -5.78172541	     -4.76790984
      0.58716667	      0.23617435	      2.47355103	      6.63963105	     -0.91428259	      1.00746854	      0.31233969	     21.96809844	     -2.35161388	     -9.39023836	      4.78713366	      1.86872280	     -1.44282263	      5.47106755	    -16.27261176	      5.94971311	     13.11662109	     -5.74221563	     14.87859438	     -6.74548231	     -4.01064242	     -6.00941376	     -5.61116862	     -4.70369183
      0.59133333	      0.31659783	      2.33234659	      6.65737205	     -0.90866056	      1.00691941	      0.31248756	     21.99205859	     -2.12972729	     -9.13763560	      4.09519019	      1.77699670	     -1.90613917	      5.52316611	    -16.44928732	      5.78557563	     13.02016794	     -6.23195008	     15.06836179	     -6.62234176	     -4.04863570	     -6.05316558	     -5.42393693	     -4.69021842
      0.59550000	      0.35425557	      2.19380704	      6.66713018	     -0.90302024	      1.00634431	      0.31264481	     22.07166522	     -1.91396352	     -8.84727517	      3.35317672	      1.65101096	     -2.40343996	      5.59057959	    -16.56760396	      5.63656384	     12.94186394	     -6.74897173	     15.23502690	     -6.52747254	     -4.07526117	     -6.03693426	     -5.24332536	     -4.67325105
      0.59966667	      0.44229706	      2.04239566	      6.66286509	     -0.89731440	      1.00586245	      0.31283273	     22.08327951	     -1.67115531	     -8.51984892	      2.61962783	      1.45749192	     -2.97092033	      5.67556129	    -16.74464003	      5.47023569	     12.84862184	     -7.25532934	     15.36994222	     -6.44640961	     -4.09014879	     -6.07561155	     -5.03764615	     -4.64348891
      0.60383333	      0.49904266	      1.88862767	      6.65619244	     -0.89154467	      1.00536976	      0.31303564	     22.12222494	     -1.42539826	     -8.16407066	      1.88169079	      1.19259504	     -3.60459687	      5.77587874	    -16.87553656	      5.30763708	     12.73686426	     -7.79160074	     15.48942983	     -6.34623758	     -4.09104003	     -6.06365808	     -4.83910181	     -4.61619767
      0.60800000	      0.56549870	      1.72844116	      6.64073779	     -0.88573886	      1.00491991	      0.31326299	     22.14246004	     -1.16513473	     -7.77459508	      1.15304461	      0.85792311	     -4.29888618	      5.89095886	    -17.00841598	      5.14001950	     12.60630891	     -8.35042576	     15.58719388	     -6.24454476	     -4.07728694	     -6.06275705	     -4.63128310	     -4.58304088
      0.61216667	      0.61549429	      1.55775684	      6.60930755	     -0.87986153	      1.00447767	      0.31352916	     22.17540116	     -0.88664955	     -7.34957728	      0.42905148	      0.48375415	     -5.00815271	      5.99673137	    -17.11926932	      4.96860800	     12.47699540	     -8.91903277	     15.65642669	     -6.15657880	     -4.05209776	     -6.02221223	     -4.39747203	     -4.55395903
      0.61633333	      0.69184605	      1.38813601	      6.58270140	     -0.87395461	      1.00410948	      0.31381665	     22.16256255	     -0.60187452	     -6.92085802	     -0.25668896	     -0.00732452	     -5.80155432	      6.11466897	    -17.24547141	      4.79111699	     12.30172458	     -9.51273832	     15.69727644	     -6.03512964	     -4.01060377	     -6.01840208	     -4.18015580	     -4.51278709
      0.62050000	      0.75394254	      1.23739139	      6.56413498	     -0.86803504	      1.00376886	      0.31411992	     22.15948841	     -0.33733206	     -6.48489585	     -0.93296211	     -0.56578849	     -6.65659524	      6.27063168	    -17.32897441	      4.63369833	     12.11941359	    -10.16465357	     15.72222679	     -5.88075944	     -3.93835327	     -6.00094667	     -4.01250380	     -4.46032056
      0.62466667	      0.79783116	      1.05520561	      6.52834667	     -0.86203415	      1.00343617	      0.31445849	     22.16852485	     -0.03417939	     -6.03654422	     -1.58986199	     -1.16454215	     -7.47116904	      6.42353748	    -17.39754528	      4.44759423	     11.92288952	    -10.80108493	     15.70109780	     -5.73573795	     -3.85062764	     -5.94614945	     -3.77737032	     -4.42292998
      0.62883333	      0.85213084	      0.88436230	      6.50029243	     -0.85601785	      1.00315408	      0.31481806	     22.15952266	      0.25935235	     -5.60052758	     -2.23182898	     -1.80821513	     -8.32356478	      6.59819118	    -17.45704693	      4.26811955	     11.70295777	    -11.48605457	     15.67751232	     -5.56261746	     -3.73149963	     -5.90667175	     -3.58108296	     -4.37267343
